<svg width="18" height="18" viewBox="0 0 18 18" fill="none" xmlns="http://www.w3.org/2000/svg">
<path fill-rule="evenodd" clip-rule="evenodd" d="M9 0.666656C13.6024 0.666656 17.3333 4.39762 17.3333 8.99999C17.3333 13.6024 13.6024 17.3333 9 17.3333C4.39762 17.3333 0.666664 13.6024 0.666664 8.99999C0.666664 4.39762 4.39762 0.666656 9 0.666656ZM14.2673 4.91289L4.9129 14.2673C6.04165 15.1444 7.45983 15.6667 9 15.6667C12.6819 15.6667 15.6667 12.6819 15.6667 8.99999C15.6667 7.45982 15.1444 6.04164 14.2673 4.91289ZM9 2.33332C5.3181 2.33332 2.33333 5.31809 2.33333 8.99999C2.33333 10.5402 2.85561 11.9583 3.73272 13.0871L13.0871 3.73272C11.9583 2.8556 10.5402 2.33332 9 2.33332Z" fill="#0C2747"/>
</svg>
