<svg width="20" height="24" viewBox="0 0 20 24" fill="none" xmlns="http://www.w3.org/2000/svg">
<path d="M20 5C20 4.44772 19.5523 4 19 4H15V2C15 1.46957 14.7893 0.960859 14.4142 0.585786C14.0391 0.210714 13.5304 0 13 0H7C6.46957 0 5.96086 0.210714 5.58579 0.585786C5.21071 0.960859 5 1.46957 5 2V4H1C0.447715 4 0 4.44772 0 5C0 5.55228 0.447715 6 1 6H2V21C2 21.7956 2.31607 22.5587 2.87868 23.1213C3.44129 23.6839 4.20435 24 5 24H15C15.7956 24 16.5587 23.6839 17.1213 23.1213C17.6839 22.5587 18 21.7956 18 21V6H19C19.5523 6 20 5.55228 20 5ZM7 2H13V4H7V2ZM16 21C16 21.2652 15.8946 21.5196 15.7071 21.7071C15.5196 21.8946 15.2652 22 15 22H5C4.73478 22 4.48043 21.8946 4.29289 21.7071C4.10536 21.5196 4 21.2652 4 21V6H16V21Z" fill="#0C2747"/>
<path d="M9 17V11C9 10.4477 8.55228 10 8 10C7.44772 10 7 10.4477 7 11V17C7 17.5523 7.44772 18 8 18C8.55228 18 9 17.5523 9 17Z" fill="#0C2747"/>
<path d="M13 17V11C13 10.4477 12.5523 10 12 10C11.4477 10 11 10.4477 11 11V17C11 17.5523 11.4477 18 12 18C12.5523 18 13 17.5523 13 17Z" fill="#0C2747"/>
</svg>
